
<svg version="1.0" xmlns="http://www.w3.org/2000/svg"
 width="1280.000000pt" height="1041.000000pt" viewBox="0 0 1280.000000 1041.000000"
 preserveAspectRatio="xMidYMid meet">

<g transform="translate(0.000000,1041.000000) scale(0.100000,-0.100000)"
fill="#000000" stroke="none">
<path d="M2580 10308 c-271 -310 -349 -530 -381 -1073 -11 -186 -14 -204 -39
-255 l-28 -55 4 140 c2 77 6 235 8 350 6 273 38 517 96 744 30 117 15 125 -50
25 -116 -181 -236 -467 -271 -649 -10 -48 -14 -145 -13 -315 0 -206 5 -277 28
-450 l27 -205 -62 -140 c-33 -77 -62 -141 -62 -142 -1 -1 -1 71 1 160 3 109
-2 202 -12 282 -29 219 -39 480 -27 681 10 164 30 350 47 442 5 24 3 32 -8 32
-30 0 -190 -378 -242 -572 -42 -156 -57 -264 -58 -413 -1 -211 34 -441 113
-757 21 -86 39 -171 39 -188 0 -17 -20 -88 -45 -158 -64 -177 -64 -178 -58
-92 8 111 -13 301 -58 515 -81 386 -102 600 -97 985 2 171 -1 266 -7 267 -22
3 -132 -329 -179 -537 -33 -148 -56 -339 -56 -460 0 -238 72 -553 225 -985 65
-184 65 -178 14 -370 l-34 -130 -6 120 c-10 190 -39 319 -139 628 -123 384
-200 773 -226 1147 -8 115 -25 133 -44 48 -97 -448 -106 -898 -24 -1222 55
-220 151 -471 319 -831 67 -143 67 -144 49 -258 -8 -56 -19 -115 -24 -132 l-8
-30 -1 30 c-2 45 -46 219 -81 319 -17 48 -70 172 -117 274 -100 218 -153 353
-217 551 -50 155 -116 413 -142 556 -9 50 -18 96 -20 103 -5 16 -21 15 -27 -3
-15 -36 -29 -375 -24 -535 15 -407 72 -632 257 -1001 72 -144 121 -229 298
-518 47 -77 52 -89 47 -130 -2 -25 -7 -91 -11 -146 l-6 -100 -24 84 c-50 172
-116 308 -254 526 -202 318 -353 640 -476 1013 -25 78 -50 142 -55 142 -14 0
-10 -241 6 -392 29 -277 75 -490 141 -662 88 -229 266 -507 518 -811 155 -186
143 -159 149 -325 l6 -144 -34 79 c-67 155 -151 276 -363 527 -200 236 -379
514 -528 818 -76 154 -111 199 -100 128 3 -18 13 -78 22 -133 18 -115 63 -310
101 -440 121 -417 313 -694 753 -1088 74 -66 143 -128 153 -137 13 -12 22 -47
32 -126 8 -60 15 -115 15 -122 0 -8 -27 23 -60 67 -79 106 -177 209 -335 350
-272 243 -461 454 -683 765 -51 70 -104 148 -118 173 -26 43 -52 54 -46 18 6
-33 73 -228 119 -345 71 -184 204 -445 294 -580 144 -216 399 -451 736 -678
l151 -102 22 -97 c12 -54 25 -111 30 -128 25 -89 23 -91 -26 -25 -116 160
-242 278 -494 467 -283 211 -561 483 -802 785 -39 48 -77 88 -84 88 -8 0 -14
-2 -14 -4 0 -9 96 -218 149 -324 304 -607 568 -875 1203 -1226 l157 -87 31
-95 c18 -52 49 -139 69 -194 l38 -99 -94 99 c-132 139 -271 242 -518 385 -293
170 -594 407 -882 694 -67 67 -124 117 -128 112 -12 -20 116 -244 267 -467
170 -252 355 -460 514 -580 190 -143 462 -289 769 -413 l170 -68 62 -119 c34
-66 62 -122 62 -127 1 -4 -25 14 -56 40 -129 104 -304 203 -513 288 -358 146
-750 381 -1077 647 -113 92 -120 77 -25 -55 116 -162 271 -346 412 -490 252
-259 415 -371 730 -505 169 -71 309 -115 653 -203 34 -9 45 -21 103 -111 36
-56 84 -125 105 -155 42 -57 42 -64 1 -34 -43 30 -201 106 -277 134 -38 13
-153 46 -255 72 -362 92 -640 203 -972 389 -65 36 -120 66 -123 66 -55 0 326
-367 544 -524 105 -75 253 -157 356 -197 180 -70 490 -133 788 -160 l138 -13
46 -55 c26 -31 86 -96 133 -145 47 -49 81 -87 75 -85 -5 2 -37 18 -70 35 -151
79 -332 123 -619 149 -192 18 -338 43 -511 86 -148 37 -368 109 -495 160 -52
22 -98 35 -103 30 -15 -15 185 -175 390 -308 387 -253 680 -326 1228 -307 378
13 327 20 427 -61 48 -38 86 -71 85 -72 -1 -1 -32 7 -69 17 -147 41 -292 48
-586 28 -282 -18 -624 11 -932 79 -168 37 -173 38 -168 22 14 -42 436 -261
629 -328 208 -71 289 -84 499 -85 222 0 324 12 618 70 l224 45 101 -62 c56
-34 107 -67 114 -73 9 -8 -21 -10 -110 -8 -153 4 -233 -7 -466 -62 -342 -82
-506 -100 -878 -100 -150 0 -273 -4 -273 -9 0 -19 279 -121 458 -167 231 -60
423 -80 597 -60 203 23 482 102 788 225 l118 48 152 -73 c84 -40 155 -75 159
-79 4 -3 -26 -7 -65 -9 -151 -6 -295 -38 -551 -123 -350 -116 -710 -183 -1058
-196 -133 -5 -168 -9 -168 -20 0 -18 27 -28 206 -73 289 -74 538 -103 769 -89
252 16 547 109 947 300 102 49 190 89 195 89 4 0 90 -30 191 -67 l183 -68
-123 -6 c-202 -11 -407 -65 -672 -179 -346 -148 -737 -255 -1136 -310 -85 -12
-157 -23 -159 -25 -29 -29 322 -86 614 -101 151 -7 359 8 490 37 255 55 575
193 970 418 88 51 170 94 181 97 21 5 235 -62 505 -159 70 -25 227 -73 350
-107 123 -34 231 -64 239 -66 9 -3 -6 -13 -35 -23 -126 -46 -161 -77 -191
-177 -13 -43 -20 -224 -9 -224 2 0 30 16 60 36 87 55 328 142 613 220 l92 25
93 -25 c284 -78 525 -165 612 -220 30 -20 58 -36 60 -36 11 0 4 181 -9 224
-30 100 -65 131 -191 177 -29 10 -44 20 -35 23 8 2 116 32 239 66 123 34 280
82 350 107 270 97 484 164 505 159 11 -3 93 -46 181 -97 395 -225 715 -363
970 -418 131 -29 339 -44 490 -37 292 15 643 72 614 101 -2 2 -74 13 -159 25
-399 55 -790 162 -1136 310 -265 114 -470 168 -672 179 l-123 6 183 68 c101
37 187 67 191 67 5 0 93 -40 195 -89 400 -191 695 -284 947 -300 231 -14 480
15 769 89 179 45 206 55 206 73 0 11 -35 15 -167 20 -349 13 -709 80 -1059
196 -256 85 -400 117 -551 123 -39 2 -69 6 -65 9 4 4 75 39 159 79 l152 73
118 -48 c306 -123 585 -202 788 -225 174 -20 366 0 597 60 179 46 458 148 458
167 0 5 -123 9 -272 9 -373 0 -537 18 -879 100 -233 55 -313 66 -466 62 -89
-2 -119 0 -110 8 7 6 58 39 114 73 l101 62 224 -45 c294 -58 396 -70 618 -70
210 1 291 14 499 85 193 67 615 286 629 328 5 16 0 15 -168 -22 -308 -68 -650
-97 -932 -79 -294 20 -439 13 -586 -28 -37 -10 -68 -18 -69 -17 -1 1 37 34 85
72 100 81 49 74 427 61 548 -19 841 54 1228 307 205 133 405 293 390 308 -5 5
-51 -8 -103 -30 -127 -51 -347 -123 -495 -160 -173 -43 -319 -68 -511 -86
-287 -26 -468 -70 -619 -149 -33 -17 -64 -33 -70 -35 -5 -2 28 36 75 85 47 49
107 114 133 145 l46 55 138 13 c298 27 608 90 788 160 103 40 251 122 356 197
218 157 599 524 544 524 -3 0 -58 -30 -123 -66 -332 -186 -610 -297 -972 -389
-102 -26 -216 -59 -255 -72 -76 -28 -234 -104 -277 -134 -41 -30 -41 -23 1 34
21 30 69 99 105 155 58 90 69 102 103 111 344 88 484 132 653 203 315 134 478
246 730 505 141 144 296 328 412 490 95 132 88 147 -25 55 -327 -266 -719
-501 -1077 -647 -209 -85 -384 -184 -512 -288 -32 -26 -58 -44 -57 -40 0 5 28
61 62 127 l62 119 170 68 c307 124 579 270 769 413 159 120 344 328 514 580
151 223 279 447 267 467 -4 5 -61 -45 -128 -112 -288 -287 -589 -524 -882
-694 -247 -143 -386 -246 -518 -385 l-94 -99 38 99 c20 55 51 142 69 194 l31
95 157 87 c291 160 491 298 663 453 185 169 369 431 540 773 53 106 149 315
149 324 0 2 -6 4 -14 4 -7 0 -45 -40 -84 -88 -241 -302 -519 -574 -802 -785
-252 -189 -378 -307 -494 -467 -49 -66 -51 -64 -26 25 5 17 18 74 30 128 l22
97 151 102 c337 227 592 462 736 678 90 135 223 396 294 580 46 117 113 312
119 345 6 36 -20 25 -46 -18 -14 -25 -67 -103 -118 -173 -222 -311 -411 -522
-683 -765 -158 -141 -256 -244 -335 -350 -33 -44 -60 -75 -60 -67 0 7 7 62 15
122 10 79 19 114 32 126 10 9 79 71 153 137 440 394 632 671 753 1088 38 130
83 325 101 440 9 55 19 115 22 133 11 71 -24 26 -100 -128 -149 -304 -328
-582 -528 -818 -212 -251 -296 -372 -363 -527 l-34 -79 6 144 c6 166 -6 139
149 325 252 304 430 582 518 811 66 172 112 385 141 662 16 151 20 392 6 392
-5 0 -30 -64 -55 -142 -123 -373 -274 -695 -476 -1013 -138 -218 -204 -354
-254 -526 l-24 -84 -6 100 c-4 55 -9 121 -11 146 -5 41 0 53 47 130 177 289
226 374 298 518 185 369 242 594 257 1001 5 160 -9 499 -24 535 -6 18 -22 19
-27 3 -2 -7 -11 -53 -20 -103 -26 -143 -92 -401 -142 -556 -64 -198 -117 -333
-217 -551 -47 -102 -100 -226 -117 -274 -35 -100 -79 -274 -81 -319 l-1 -30
-8 30 c-5 17 -16 76 -24 132 -18 114 -18 115 49 258 141 304 193 431 258 630
90 276 108 371 114 622 7 267 -18 529 -77 801 -19 85 -36 67 -44 -48 -26 -374
-103 -763 -226 -1147 -100 -309 -129 -438 -139 -628 l-6 -120 -34 130 c-51
192 -51 186 14 370 153 432 225 747 225 985 0 121 -23 312 -56 460 -47 208
-159 545 -180 538 -5 -2 -8 -110 -6 -268 5 -385 -16 -599 -97 -985 -45 -214
-66 -404 -58 -515 6 -86 6 -85 -58 92 -25 70 -45 141 -45 158 0 17 18 102 39
188 132 525 146 833 55 1170 -52 194 -212 572 -242 572 -11 0 -13 -8 -8 -32
17 -92 37 -278 47 -442 12 -201 2 -462 -27 -681 -10 -80 -15 -173 -12 -282 2
-89 2 -161 1 -160 0 1 -29 65 -62 142 l-62 140 27 205 c23 173 28 244 28 450
1 170 -3 267 -13 315 -35 182 -155 468 -271 649 -65 100 -80 92 -50 -25 58
-227 90 -471 96 -744 2 -115 6 -273 8 -350 l4 -140 -28 55 c-25 51 -28 69 -39
255 -26 452 -83 665 -240 892 -108 157 -251 308 -251 265 0 -5 18 -50 40 -101
75 -172 164 -459 185 -599 l7 -43 -149 124 c-214 179 -356 334 -492 535 -24
34 -47 62 -53 62 -27 0 55 -266 131 -426 115 -240 246 -370 575 -569 44 -28
51 -36 77 -108 15 -43 52 -115 82 -160 86 -130 87 -136 16 -78 -35 28 -108 74
-162 103 -207 111 -352 219 -519 385 -59 59 -111 104 -115 100 -10 -10 11 -64
68 -182 60 -125 152 -266 224 -343 101 -109 282 -215 499 -294 61 -21 127 -45
146 -52 28 -11 41 -25 64 -72 27 -55 186 -415 186 -421 0 -1 -35 33 -77 75
-87 87 -139 124 -301 211 -205 110 -369 231 -546 401 -64 62 -107 97 -111 90
-10 -16 112 -258 186 -369 164 -245 358 -381 734 -515 72 -26 142 -52 157 -57
30 -12 62 -84 163 -373 l53 -152 -107 106 c-60 60 -139 127 -181 154 -200 127
-322 210 -400 273 -112 90 -271 244 -361 349 -42 48 -76 81 -82 75 -12 -12 49
-165 125 -313 110 -217 231 -377 363 -483 137 -109 341 -223 575 -320 63 -26
120 -53 126 -59 6 -6 32 -91 57 -190 25 -98 44 -177 43 -175 -2 2 -31 41 -64
86 -79 106 -180 191 -373 314 -256 162 -445 320 -624 520 -54 60 -102 109
-107 109 -24 0 22 -123 117 -310 203 -399 402 -573 905 -790 l175 -76 17 -85
c20 -99 60 -361 55 -365 -2 -2 -23 27 -47 64 -59 90 -218 246 -370 364 -252
195 -472 420 -675 691 -38 51 -61 75 -68 68 -12 -12 35 -155 100 -311 25 -58
55 -150 68 -205 79 -335 192 -603 332 -790 99 -133 324 -350 526 -510 l178
-140 -5 -90 c-16 -260 -19 -296 -26 -288 -3 4 -19 40 -34 80 -53 138 -138 258
-333 468 -215 233 -424 529 -552 784 -46 90 -59 71 -37 -51 57 -314 184 -645
315 -818 117 -154 299 -334 513 -508 l119 -96 -6 -51 c-9 -72 -54 -339 -68
-409 l-12 -58 -27 96 c-15 53 -52 147 -81 209 -50 105 -84 159 -279 442 -97
142 -173 274 -265 460 -59 120 -161 363 -196 468 -4 9 -12 17 -18 17 -26 0 13
-379 62 -608 31 -141 86 -306 139 -417 92 -192 268 -432 503 -686 l126 -137
-29 -113 c-17 -63 -35 -133 -41 -156 -6 -24 -15 -43 -19 -43 -4 0 -10 19 -13
43 -19 135 -121 351 -275 580 -60 89 -132 202 -161 251 -112 191 -256 503
-321 699 -22 66 -37 97 -47 97 -13 0 -15 -15 -9 -102 29 -440 113 -785 247
-1023 100 -176 253 -379 437 -582 l102 -112 -64 -178 c-77 -214 -116 -315
-127 -328 -5 -5 -9 19 -9 54 0 159 -70 383 -209 664 -49 100 -106 223 -127
272 -90 220 -183 518 -227 729 -24 112 -40 140 -54 89 -13 -48 -9 -569 6 -673
52 -377 166 -646 461 -1090 53 -80 100 -150 103 -157 5 -7 -37 -101 -95 -215
l-103 -203 -7 120 c-8 147 -36 280 -93 445 -24 69 -70 204 -104 300 -103 300
-185 676 -213 984 -5 49 -25 41 -37 -13 -18 -86 -40 -270 -51 -435 -12 -184 0
-407 30 -556 42 -206 143 -467 301 -776 l98 -192 -76 -113 c-101 -153 -216
-304 -221 -291 -2 6 2 37 7 68 15 82 13 271 -4 394 -8 58 -35 188 -60 290 -88
363 -124 626 -134 979 -4 154 -10 236 -17 238 -21 7 -94 -271 -135 -517 -33
-198 -34 -507 -1 -670 49 -244 97 -407 208 -708 l65 -174 -32 -36 c-36 -43
-200 -212 -204 -212 -2 0 2 17 8 38 7 22 12 105 11 207 0 160 -2 181 -42 370
-71 340 -97 595 -90 891 5 234 -8 232 -86 -13 -154 -481 -140 -808 59 -1394
30 -90 55 -169 55 -175 0 -14 -154 -149 -289 -254 -53 -41 -91 -65 -87 -54 4
11 20 62 34 114 25 93 26 103 28 435 4 509 15 652 70 930 32 156 32 157 19
162 -28 9 -201 -334 -258 -512 -64 -199 -72 -255 -72 -500 1 -219 11 -338 54
-602 l18 -112 -71 -47 c-70 -47 -244 -154 -250 -154 -1 0 10 27 26 59 54 113
88 300 88 488 0 117 24 328 56 482 21 107 76 313 99 374 16 39 -26 14 -73 -46
-125 -157 -232 -355 -276 -507 -47 -166 -58 -417 -31 -715 8 -88 15 -167 15
-176 0 -11 -55 -42 -172 -99 -152 -73 -303 -140 -315 -140 -2 0 9 19 25 43 67
98 116 222 167 424 63 252 196 569 307 731 109 158 -192 -66 -343 -256 -79
-98 -121 -177 -163 -302 -48 -146 -82 -306 -106 -505 -12 -93 -25 -176 -28
-184 -4 -7 -30 -22 -57 -32 -72 -28 -305 -109 -313 -109 -3 0 8 15 25 33 70
75 120 167 198 366 104 267 198 441 344 634 44 58 76 109 71 112 -14 9 -156
-67 -245 -130 -268 -190 -378 -384 -503 -882 l-47 -186 -150 -44 c-204 -58
-451 -111 -953 -202 l-422 -77 -423 77 c-501 91 -748 144 -952 202 l-150 44
-47 186 c-125 498 -235 692 -503 882 -89 63 -231 139 -245 130 -5 -3 27 -54
71 -112 146 -193 240 -367 344 -634 78 -199 128 -291 198 -366 17 -18 28 -33
25 -33 -8 0 -241 81 -313 109 -27 10 -53 25 -57 32 -3 8 -16 91 -28 184 -35
285 -101 539 -176 672 -73 131 -216 285 -370 399 -89 66 -115 62 -66 -8 111
-162 244 -479 307 -731 51 -202 100 -326 167 -424 16 -24 27 -43 25 -43 -12 0
-163 67 -314 140 -118 57 -173 88 -173 99 0 9 7 88 15 176 27 298 16 549 -31
715 -44 152 -151 350 -276 508 -47 59 -89 84 -73 45 23 -61 78 -267 99 -374
32 -154 56 -365 56 -482 0 -188 34 -375 88 -488 16 -32 27 -59 26 -59 -6 0
-180 107 -250 154 l-71 47 18 112 c43 264 53 383 54 602 0 245 -8 301 -72 500
-57 178 -230 521 -258 512 -13 -5 -13 -6 19 -162 55 -278 66 -421 70 -930 2
-332 3 -342 28 -435 14 -52 30 -103 34 -114 4 -11 -34 13 -87 54 -135 105
-289 240 -289 254 0 6 25 85 55 175 199 586 213 913 59 1394 -78 245 -91 247
-86 13 7 -296 -19 -551 -90 -891 -40 -189 -42 -210 -42 -370 -1 -102 4 -185
11 -207 6 -21 10 -38 8 -38 -4 0 -168 169 -204 212 l-32 36 65 174 c111 301
159 464 208 708 33 163 32 472 -1 670 -41 246 -114 524 -135 517 -7 -2 -13
-84 -17 -238 -10 -353 -46 -616 -134 -979 -25 -102 -52 -232 -60 -290 -17
-123 -19 -312 -4 -394 5 -31 9 -62 7 -68 -5 -13 -120 138 -221 291 l-76 113
98 192 c158 309 259 570 301 776 30 149 42 372 30 556 -11 165 -33 349 -51
435 -12 54 -32 62 -37 13 -28 -308 -110 -684 -213 -984 -34 -96 -80 -231 -104
-300 -57 -165 -85 -298 -93 -445 l-7 -120 -103 203 c-58 114 -100 208 -95 215
3 7 50 77 103 157 295 444 409 713 461 1090 15 104 19 625 6 673 -14 51 -30
23 -54 -89 -44 -211 -137 -509 -227 -729 -21 -49 -78 -172 -127 -272 -139
-281 -209 -505 -209 -664 0 -35 -4 -59 -9 -53 -11 12 -50 113 -127 327 l-64
178 102 112 c184 203 337 406 437 582 134 238 218 583 247 1023 6 87 4 102 -9
102 -10 0 -25 -31 -47 -97 -65 -196 -209 -508 -321 -699 -29 -49 -101 -162
-161 -251 -154 -229 -256 -445 -275 -580 -3 -24 -9 -43 -13 -43 -4 0 -13 19
-19 43 -6 23 -24 93 -41 156 l-29 113 126 137 c451 488 601 781 683 1336 26
182 38 375 21 375 -6 0 -14 -8 -18 -17 -35 -105 -137 -348 -196 -468 -92 -186
-168 -318 -265 -460 -195 -283 -229 -337 -279 -442 -29 -62 -66 -156 -81 -209
l-27 -96 -12 58 c-14 70 -59 337 -68 409 l-6 51 119 96 c214 174 396 354 513
508 131 173 258 504 315 818 22 122 9 141 -37 51 -128 -255 -337 -551 -552
-784 -195 -210 -280 -330 -333 -468 -44 -115 -39 -132 -60 208 l-5 90 178 140
c202 160 427 377 526 510 140 187 253 455 332 790 13 55 43 147 68 205 65 156
112 299 100 311 -7 7 -30 -17 -68 -68 -203 -271 -423 -496 -675 -691 -152
-118 -311 -274 -370 -364 -24 -37 -45 -66 -47 -64 -5 4 35 266 55 365 l17 85
175 76 c503 217 702 391 905 790 95 187 141 310 117 310 -5 0 -53 -49 -107
-109 -179 -200 -368 -358 -624 -520 -193 -123 -294 -208 -373 -314 -33 -45
-62 -84 -64 -86 -1 -2 18 77 43 175 25 99 51 184 57 190 6 6 63 33 126 59 234
97 438 211 575 320 132 106 253 266 363 483 76 148 137 301 125 313 -6 6 -40
-27 -82 -75 -90 -105 -249 -259 -361 -349 -78 -63 -200 -146 -400 -273 -42
-27 -121 -94 -181 -154 l-107 -106 53 152 c101 289 133 361 163 373 15 5 86
31 157 57 376 134 570 270 734 515 74 111 196 353 186 369 -4 7 -47 -28 -111
-90 -177 -170 -341 -291 -546 -401 -162 -87 -214 -124 -300 -211 -43 -42 -78
-76 -78 -75 0 6 159 366 186 421 23 47 36 61 64 72 19 7 85 31 146 52 217 79
398 185 499 294 72 77 164 218 224 343 57 118 78 172 68 182 -4 4 -56 -41
-115 -100 -167 -166 -312 -274 -519 -385 -54 -29 -127 -75 -162 -103 -71 -58
-70 -52 16 78 30 45 67 117 82 160 26 72 33 80 77 108 329 199 460 329 575
569 76 160 158 426 131 426 -6 0 -29 -28 -53 -62 -136 -201 -278 -356 -492
-535 l-149 -124 7 43 c21 140 110 427 185 599 22 51 40 96 40 101 0 26 -38 -3
-110 -84z m-691 -3800 c-35 -40 -129 -141 -209 -224 -162 -167 -251 -285 -317
-419 l-45 -90 6 145 c4 80 9 173 12 207 l6 62 117 67 c146 84 347 217 426 282
33 27 62 48 64 46 2 -2 -25 -36 -60 -76z m9211 -102 c69 -46 177 -113 241
-150 l117 -67 6 -62 c3 -34 8 -127 12 -207 l6 -145 -45 90 c-66 134 -155 252
-317 419 -149 155 -270 289 -270 300 0 3 28 -17 63 -45 34 -28 118 -88 187
-133z"/>
</g>
</svg>
