<svg xmlns="http://www.w3.org/2000/svg" viewBox="0 0 1786.51 1309.09">
  <g id="Layer_2" data-name="Layer 2">
    <g id="Layer_1-2" data-name="Layer 1">
      <g>
        <polygon points="678.87 248.49 664.85 252.79 655.44 231 634.17 234.76 624.46 219.61 616.79 224.53 629.77 244.79 649.93 241.23 659.73 263.9 680.82 257.42 678.87 248.49" style="fill: #86b1f2"/>
        <polygon points="1577.78 1032.2 1563.77 1036.5 1554.35 1014.71 1533.08 1018.47 1523.37 1003.32 1515.7 1008.24 1528.69 1028.5 1548.84 1024.94 1558.64 1047.61 1579.73 1041.13 1577.78 1032.2" style="fill: #86b1f2"/>
        <path d="M592.5,1290.17s-74.79-253.52-80.8-309.44,35.83-38.6,35.83-38.6-35.19-106.56-9.74-131.85,48.39,21.85,48.39,21.85,7.7-129.36,34.83-129.4c50.53-.09,49.53,141.07,49.53,141.07s12.9-55.26,40-40.11c40.8,22.85-17.71,133.6-17.71,133.6s52,0,70.25,26.26C795.8,1010.58,592.5,1290.17,592.5,1290.17Z" style="fill: #466eb6"/>
        <g>
          <path d="M617,1256.62s-215.63-36.06-262.54-74.27-.48-55.43-.48-55.43-108.32-55.53-107.06-93.29,55.06-18.57,55.06-18.57S210.67,911,232.28,891.22C272.53,854.41,378,962.6,378,962.6s-31.33-51.45,1.67-59.6c49.76-12.28,86.49,114.59,86.49,114.59s-9.34-50.1,25-43.43C552.74,986.14,617,1256.62,617,1256.62Z" style="fill: #466eb6"/>
          <path d="M491.18,974.16c-34.4-6.22-25,43.43-25,43.43S429.47,890.72,379.71,903c-33,8.15-1.67,59.6-1.67,59.6S272.53,854.41,232.28,891.22l384,365.46C609.39,1221.77,548.85,984.59,491.18,974.16Z" style="fill: #355389"/>
        </g>
        <g>
          <path d="M678.3,1286.36s-113.55-115.48-170.74-127.51-46.9,28.66-46.9,28.66-113.46-99.22-139.75-75.18,2.15,47.25,2.15,47.25-94.51-16.74-108,14.27c-20.79,47.65,134.64,73.59,134.64,73.59s-65.13,4.51-50,34.4C322.41,1326.9,678.3,1286.36,678.3,1286.36Z" style="fill: #355389"/>
          <path d="M215,1173.85c13.53-31,108-14.27,108-14.27s-28.45-23.21-2.15-47.25S457.13,1174,457.13,1174s-25.92-49.55,31.27-37.52,189.9,149.86,189.9,149.86Z" style="fill: #466eb6"/>
        </g>
        <g>
          <path d="M859.09,95.32c-38.22,6.29-49.57,56.46-17.8,78.9a29.14,29.14,0,0,1,11.34,16.88l5.79,23.33a12.7,12.7,0,0,0,14.39,9.48l14.49-2.38a12.71,12.71,0,0,0,10.6-13.6c-2-24.09-4.5-32.83,3.33-43.57C924.14,132.92,897.32,89,859.09,95.32Z" style="fill: #f7cc7f"/>
          <path d="M863,197.32c-2.49-20.65-6-42.44-7.17-48.62-21.91,1.21-13.58-21.88-3.47-12.49,2.88,2.67,4.24,6.3,5.14,10.28a56.76,56.76,0,0,0,20.88-6.08c-.35-5.09-.86-8.95.57-12.21,2.14-4.92,8.38-6.26,10.91-1.46a7.63,7.63,0,0,1,.43,6c-1.46,4.07-5.89,6.76-9.74,8.86,1.15,16.41,2.75,32.95,4.76,49.23l-2.07.26c-2-16-3.56-32.29-4.71-48.44a58.58,58.58,0,0,1-20.61,5.88c1.5,7.91,4.82,29.15,7.15,48.53Zm-17.57-53.49c1.94,2.1,5.2,3,10,2.81-.83-3.51-2-6.67-4.46-8.91C845.49,132.68,842.15,140.31,845.42,143.83ZM880.85,129c-1.2,2.73-.74,6.24-.47,10.27,3.13-1.78,6.77-4,7.94-7.27.83-2.29-.1-5.52-2.43-6.12C885.64,125.85,881.68,127.11,880.85,129Z" style="fill: #fae0b2"/>
          <path d="M852.46,190.52c0,.19.12.38.17.58l5.79,23.33a12.7,12.7,0,0,0,14.39,9.48l14.49-2.38a12.71,12.71,0,0,0,10.6-13.6c-.9-10.71-1.88-18.39-2-24.56Z" style="fill: #86b1f2"/>
          <path d="M830.76,77.9,819.33,57a4.17,4.17,0,1,1,7.31-4l11.43,20.86a4.17,4.17,0,0,1-7.31,4Z" style="fill: #fae0b2"/>
          <path d="M805.77,128.37l-24.91-2.18a4.17,4.17,0,1,1,.73-8.31l24.91,2.18a4.17,4.17,0,0,1-.73,8.31Z" style="fill: #fae0b2"/>
          <path d="M781.07,204.75a4.17,4.17,0,0,1,0-5.89,135.73,135.73,0,0,1,20-16.33,4.17,4.17,0,1,1,4.64,6.93A128.05,128.05,0,0,0,787,204.79,4.16,4.16,0,0,1,781.07,204.75Z" style="fill: #fae0b2"/>
          <path d="M892.32,76.77a4.17,4.17,0,0,1-3-5.1,157.78,157.78,0,0,0,5.14-32.38,4.17,4.17,0,0,1,8.33.45,167.29,167.29,0,0,1-5.41,34.08A4.17,4.17,0,0,1,892.32,76.77Z" style="fill: #fae0b2"/>
          <path d="M918,108.8a4.17,4.17,0,0,1,2.78-5.2l25.9-7.8a4.17,4.17,0,1,1,2.41,8l-25.9,7.81A4.16,4.16,0,0,1,918,108.8Z" style="fill: #fae0b2"/>
          <path d="M960.52,177.72a4.06,4.06,0,0,1-1.13-.16,130.92,130.92,0,0,1-25.93-10.39,4.17,4.17,0,0,1,3.91-7.37,122.23,122.23,0,0,0,24.28,9.74,4.17,4.17,0,0,1-1.13,8.18Z" style="fill: #fae0b2"/>
        </g>
        <path d="M1339.91,362l-13.06-30.9L1294,324.36a4.61,4.61,0,0,1-2.09-8l25.35-22L1313.51,261a4.61,4.61,0,0,1,7-4.46l28.73,17.32L1379.76,260a4.62,4.62,0,0,1,6.4,5.25l-7.6,32.68,22.62,24.78a4.61,4.61,0,0,1-3,7.7l-33.42,2.88-16.58,29.17A4.62,4.62,0,0,1,1339.91,362Z" style="fill: #f7cc7f"/>
        <polygon points="1547.94 255.99 1542.57 277.62 1506.81 272.82 1495.05 303.48 1467.7 304.27 1468.1 318.11 1504.68 317.06 1515.82 288 1553.02 293 1561.11 260.44 1547.94 255.99" style="fill: #f48c7f"/>
        <path d="M1229.32,1293H600.67c-24,0-43.48-20.19-43.48-45.09V1221.1c0-24.9,19.47-45.09,43.48-45.09h628.65c-28.76,32.6-29.26,82.42-1.16,115.64Z" style="fill: #b75742"/>
        <path d="M1219.61,1189.41H870.93c-24,0-43.48,20.19-43.48,45.1h0c0,24.9,19.47,45.09,43.48,45.09h348.71A89.47,89.47,0,0,1,1219.61,1189.41Z" style="fill: #fae0b2"/>
        <path d="M1008.46,1094.75c.92-1.72-.47-3.7-2.59-3.7H673.23c-26.07,0-47.21,19-47.21,42.49h0c0,23.46,21.14,42.48,47.21,42.48H1006c2.13,0,3.52-2,2.6-3.71h0A81.42,81.42,0,0,1,1008.46,1094.75Z" style="fill: #86b1f2"/>
        <path d="M1006.36,1099H841.51c-30.6,0-55.41,15.94-55.41,35.6s24.81,35.6,55.41,35.6h165.94A81.22,81.22,0,0,1,1006.36,1099Z" style="fill: #f7cc7f"/>
        <g>
          <path d="M963.79,1115.84H942.32c-4.62,0-8.36,1.55-8.36,3.46v.31h29.83Z" style="fill: #b75742"/>
          <path d="M982.1,1124.52c0-4.8-5.61-8.68-12.52-8.68H942c5.25,0,9.5,2.94,9.5,6.58l-.13,93.09,15.23-12,15.51,12Z" style="fill: #f47458"/>
        </g>
        <g>
          <path d="M947.3,1088H753.76c-17.17,0-31.08-16.52-31.08-36.89h0c0-20.37,13.91-36.88,31.08-36.88H947.3c-14.79,20.44-15.37,50.44-1.38,71.67Z" style="fill: #fae0b2"/>
          <path d="M722.7,1051.1h0c0-20.37,14.24-36.88,31.81-36.88H951a1.8,1.8,0,0,0,1.65-1.93h0a1.8,1.8,0,0,0-1.65-1.9H639.3c-19.39,0-35.11,18.23-35.11,40.71h0c0,22.48,15.72,40.71,35.11,40.71H951a1.8,1.8,0,0,0,1.65-1.9h0A1.79,1.79,0,0,0,951,1088H754.51C736.94,1088,722.7,1071.47,722.7,1051.1Z" style="fill: #355389"/>
          <g>
            <path d="M913.51,1032.34H892c-4.62,0-8.36,1.52-8.36,3.4v.3h29.83Z" style="fill: #355389"/>
            <path d="M931.82,1040.86c0-4.7-5.6-8.52-12.52-8.52H891.74c5.25,0,9.5,2.9,9.5,6.46l-.13,91.29,15.23-11.74,15.51,11.74Z" style="fill: #355389"/>
          </g>
        </g>
        <g>
          <g>
            <path d="M1255.69,468.47l28.57-7.52-19.37,258.29-34.28,1.15,17.29-242.54A10.47,10.47,0,0,1,1255.69,468.47Z" style="fill: #162f54"/>
            <g>
              <path d="M1267.45,726.61a9.1,9.1,0,0,1-2,0c-5.68-.67-9.88-6.31-9.39-12.6l19-242.88c.49-6.29,5.49-10.85,11.17-10.18s9.88,6.31,9.38,12.61l-19,242.87C1276.23,722,1272.28,726.17,1267.45,726.61Z" style="fill: #f7cc7f"/>
              <path d="M1004.48,739.55c0,.18,0,.35,0,.53h0c.89,9.88,8.55,17.27,17.1,16.51l241.3-21.6c8.55-.76,14.76-9.39,13.86-19.28q-.06-.62-.15-1.23Z" style="fill: #f7cc7f"/>
            </g>
          </g>
          <path d="M1172.51,1000.43c-15.8,8.76-64.09-6.6-64.09-8-.7,13.2-54.09,142.39-54.09,142.39l.05,39.76s110,5.24,108.42-4.48-7.49-3.4-29.44-21.76c-1.95-1.63-32.76-8.78-24.42-27C1125.73,1084.6,1161.4,1023.36,1172.51,1000.43Z" style="fill: #f7a491"/>
          <path d="M1050.76,1176l120.42,0c4.35-.44,5.36-4,3.83-6.13-3.16-4.42-26.24-14.86-41.76-21.78-27,3.15-74.52-7.24-78.87-13.4C1043,1150.05,1048.33,1175.51,1050.76,1176Z" style="fill: #355389"/>
          <path d="M1024.34,907.67c-1.63-4.89,103.68-49.58,108.39-44.47,8.34,9-57,178.57-57,178.57l75,22.93s78-195.87,74.76-231.7-42.34-76.53-127-50.48S1024.34,907.67,1024.34,907.67Z" style="fill: #355389"/>
          <path d="M1242.38,1022.71c-17.77-3.23-40.82-4.15-59.26-4.47,2.17,16.42,12.73,100.63,10.8,105.81a63.2,63.2,0,0,1-25.16,30.77s81.77,73.78,86.71,65.26-3.65-7.38-9-35.49c-.47-2.5-12.29-41.74-13-62.9C1232.06,1081.32,1241.77,1045.13,1242.38,1022.71Z" style="fill: #f7a491"/>
          <path d="M1216.14,747.21c-11.4-6.09-41-6.3-73.58-4.19A747.26,747.26,0,0,0,956,779.64L915.6,793l.13-41.43s-128.56-21.51-133,10.35c-6.74,48,1.62,145.4,44.46,167.14,133.05,67.53,319.49-107.59,320.17-84.68.91,30.77,26.85,145.28,33.48,195.41,18.44.32,50.14.31,63.88-2.85C1247.36,938.75,1248.62,764.54,1216.14,747.21Z" style="fill: #466eb6"/>
          <path d="M1166.27,1156.55l91.92,73.42c3.64,2.41,6.67.33,6.84-2.31.36-5.43-10.87-28.13-18.49-43.31-22.9-14.69-53.1-53-52.56-60.51C1184.29,1132,1164.71,1154.62,1166.27,1156.55Z" style="fill: #355389"/>
          <path d="M958.21,346.72c-3.09-28.23-6.34-56.56-29.74-77.25-18.94-16.74-43-19.58-66.82-10.62C794.2,284.23,829,344.13,743,404.53c-26.72,18.77-56.18,31.61-76.3,56.88-28.16,35.37-17.53,77.92,8.14,106.33C797.6,703.66,934.72,520.1,944.56,476,951.88,443.25,960.19,364.89,958.21,346.72Z" style="fill: #13375b"/>
          <path d="M923.82,518.6a377.18,377.18,0,0,0-20.37-33.17c-10.41-18.49-37.29-27.85-37.29-27.85s-9,.18-19.32.69a8.16,8.16,0,0,1-2,3.43c-3.88,2.91-26.11-.85-40.48,8.9-48.15,41.28-34.83,241.32-31,304.5L920,776.49s-18.49-136,11.3-170.88C952.05,581.29,938.7,546,923.82,518.6Z" style="fill: #355389"/>
          <path d="M867.17,376.74s-8.06,57.56-13.69,71.55,31,43.9,61.4,53-9.31-30.89-8-45.85,6.79-85.75,6.79-85.75Z" style="fill: #f7a491"/>
          <path d="M912.09,390c.89-11.71,1.54-20.3,1.54-20.3l-46.46,7.07s-1.17,6.76-2.46,16.32C883.54,404,900.48,400.54,912.09,390Z" style="fill: #f47458"/>
          <path d="M881.74,271.6A52.75,52.75,0,0,0,852.12,293c-11.3,17.25-19.06,68,18.18,91.75s66.2-9.82,66.68-42.54S930.45,265.83,881.74,271.6Z" style="fill: #f7a491"/>
          <path d="M945.5,332c-3.18,7.89-9.48,12.79-14.08,10.94s-5.75-9.75-2.57-17.64,9.48-12.8,14.08-10.95S948.68,324.06,945.5,332Z" style="fill: #f7a491"/>
          <path d="M887.24,270.52s-23.35,52.37-43.86,57-20.21,31-20.21,31,.46-60.85,19.68-74.8S887.24,270.52,887.24,270.52Z" style="fill: #13375b"/>
          <path d="M851.53,338.45c2.7,8.5.23,16.87-5.52,18.7s-12.59-3.59-15.29-12.1-.23-16.87,5.52-18.7S848.83,329.94,851.53,338.45Z" style="fill: #f7a491"/>
          <path d="M1113.81,716.47c-8.8-3.18-21.9-3.58-21.68-4.74.89-4.7,39.75,10.38,34.5,3.52-2.92-3.82-32-17.35-39.08-15.12-6.86,2.17-51.91,14.81-51.91,14.81l-123.1-28.85s-31.08-70.61-34.11-131.28c-25.69,3.47-43.18,9.82-65.5,22.21,10.77,58,36.93,152.06,65.86,169.71,12.17,7.42,157.46-8.89,157.46-8.89s32-2.26,37.25-4.27c4-1.53,14.19-7.28,19.75-8.86,12.63-3.57,35.14,5.41,35.21,2.93C1128.51,725.84,1122.8,719.72,1113.81,716.47Z" style="fill: #f7a491"/>
          <path d="M879.18,490c-1.18-18.67-8.25-36.69-28.12-42.49-12.3-3.6-26.12-.16-35.95,7.88-11.71,9.56-15,24.89-14.92,39.4.12,33,2.37,67.12,8.39,99.56C830.91,582,857,574.51,882.65,571,882.64,570.84,880.75,514.66,879.18,490Z" style="fill: #355389"/>
        </g>
        <g>
          <path d="M497.75,525.22,306.9,489.68a7.06,7.06,0,0,1-5.65-8.24l23.91-128.39a7,7,0,0,1,8.23-5.65l190.86,35.54a7.06,7.06,0,0,1,5.65,8.23L506,519.57A7.07,7.07,0,0,1,497.75,525.22Z" style="fill: #f7cc7f"/>
          <path d="M406.9,378.43l-58.09-10.81a7.07,7.07,0,0,1-5.65-8.24l3.64-19.53A7,7,0,0,1,355,334.2L413.13,345a7,7,0,0,1,5.64,8.23l-3.63,19.54A7.06,7.06,0,0,1,406.9,378.43Z" style="fill: #f7cc7f"/>
          <path d="M506.44,520.31a7.05,7.05,0,0,1-8.08,5L306.25,489.56a7.08,7.08,0,0,1-5.74-7.56l10.06-115.09a7.06,7.06,0,0,1,8.32-6.33L532.3,400.32a7.05,7.05,0,0,1,5.5,8.86Z" style="fill: #fae0b2"/>
        </g>
        <polygon points="1381.84 99.77 1349.16 108.69 1342.12 69.09 1352.82 67.19 1357.77 95.08 1378.98 89.29 1381.84 99.77" style="fill: #86b1f2"/>
        <g>
          <path d="M340.62,643.69c8.18-.66,20.75,2.95,26.38,6.76.85.8,7.33,3.38,14.06,14.53l-1.51,1c-7.11-7.43-11.89-9.1-17.58-10.81-9.39-2.41-18.84-.61-19.62-.19Z" style="fill: #355389"/>
          <path d="M380.3,665.51s-49.86,8.32-45.21,47.28S392.35,782.05,439.3,758c63.16-32.41,38.22-114.82-6.74-121.19S380.3,665.51,380.3,665.51Z" style="fill: #f47458"/>
          <path d="M401.46,648.35s13-13.35,41.52-1.2,30.56,68.82,5.14,65.53S381.13,656.53,401.46,648.35Z" style="fill: #f48c7f"/>
        </g>
        <g>
          <path d="M744.52,130.81,539.42,204a12.71,12.71,0,0,1-16.24-7.7L485.32,90.15A12.71,12.71,0,0,1,493,73.91L698.12.74a12.71,12.71,0,0,1,16.24,7.7l37.86,106.13A12.71,12.71,0,0,1,744.52,130.81Z" style="fill: #86b1f2"/>
          <path d="M608.57,103.53A40.64,40.64,0,1,1,556.63,78.9,40.64,40.64,0,0,1,608.57,103.53Z" style="fill: #fff"/>
          <path d="M576.11,97.84a12,12,0,1,1-15.31-7.26A12,12,0,0,1,576.11,97.84Z" style="fill: #86b1f2"/>
          <path d="M569.55,119.74h9.9a14.2,14.2,0,0,1,14.2,14.2v4.3a0,0,0,0,1,0,0h-38.3a0,0,0,0,1,0,0v-4.3a14.2,14.2,0,0,1,14.2-14.2Z" transform="translate(-9.94 200.51) rotate(-19.63)" style="fill: #86b1f2"/>
          <path d="M613.63,81.34a5.18,5.18,0,0,1-1.74-10.06l89.65-32A5.19,5.19,0,0,1,705,49.06L615.37,81A5.18,5.18,0,0,1,613.63,81.34Z" style="fill: #fff"/>
          <path d="M637.83,103.69a5.18,5.18,0,0,1-1.74-10.06l70-25a5.2,5.2,0,0,1,6.63,3.14,5.18,5.18,0,0,1-3.14,6.62l-70,25A5.18,5.18,0,0,1,637.83,103.69Z" style="fill: #fff"/>
        </g>
        <path d="M1063.2,931.29H568a27.85,27.85,0,0,0-27.85,27.85v23.42A27.85,27.85,0,0,0,568,1010.41H1063.2l-.26-.27A56.7,56.7,0,0,1,1063.2,931.29Z" style="fill: #f47458"/>
        <path d="M1054.43,943H789.68a27.84,27.84,0,0,0-27.84,27.85h0a27.83,27.83,0,0,0,27.84,27.84h264.74A56.8,56.8,0,0,1,1054.43,943Z" style="fill: #fae0b2"/>
        <g>
          <g>
            <path d="M1468.52,933.57,1431,839.39a9.23,9.23,0,0,1,5.16-12l135.09-53.84a9.23,9.23,0,0,1,12,5.16l37.54,94.18a9.23,9.23,0,0,1-5.16,12l-135.08,53.84A9.23,9.23,0,0,1,1468.52,933.57Z" style="fill: #fae0b2"/>
            <path d="M1596,879.11l-33.73-84.63a2.66,2.66,0,0,1,1.48-3.45h0a2.65,2.65,0,0,1,3.44,1.49l33.73,84.63a2.64,2.64,0,0,1-1.48,3.44h0A2.65,2.65,0,0,1,1596,879.11Z" style="fill: #466eb6"/>
            <path d="M1579.88,868l-27.7-69.48a2.66,2.66,0,0,1,1.48-3.45h0a2.67,2.67,0,0,1,3.45,1.49L1584.8,866a2.65,2.65,0,0,1-1.48,3.44h0A2.64,2.64,0,0,1,1579.88,868Z" style="fill: #466eb6"/>
            <path d="M1575.88,887.11l-33.73-84.63a2.66,2.66,0,0,1,1.48-3.45h0a2.65,2.65,0,0,1,3.44,1.49l33.73,84.63a2.64,2.64,0,0,1-1.48,3.44h0A2.65,2.65,0,0,1,1575.88,887.11Z" style="fill: #466eb6"/>
            <path d="M1558.15,871.8l-26-65.32a2.66,2.66,0,0,1,1.48-3.45h0a2.67,2.67,0,0,1,3.45,1.48l26,65.33a2.65,2.65,0,0,1-1.48,3.44h0A2.65,2.65,0,0,1,1558.15,871.8Z" style="fill: #466eb6"/>
            <g>
              <path d="M1595,785.45l-.68-1.7a1.18,1.18,0,0,0-1.52-.71L1580,788.15a1.18,1.18,0,0,0-.61,1.56l.68,1.7a1.18,1.18,0,0,0,1.52.71l12.82-5.11A1.18,1.18,0,0,0,1595,785.45Z" style="fill: #355389"/>
              <path d="M1598,792.74l-.68-1.7a1.18,1.18,0,0,0-1.52-.71l-12.82,5.11a1.19,1.19,0,0,0-.62,1.56l.68,1.7a1.18,1.18,0,0,0,1.52.71l12.82-5.11A1.19,1.19,0,0,0,1598,792.74Z" style="fill: #355389"/>
              <path d="M1600.85,800l-.67-1.7a1.19,1.19,0,0,0-1.53-.71l-12.82,5.11a1.18,1.18,0,0,0-.61,1.56l.68,1.7a1.18,1.18,0,0,0,1.52.71l12.82-5.11A1.17,1.17,0,0,0,1600.85,800Z" style="fill: #355389"/>
              <path d="M1603.76,807.32l-.68-1.7a1.18,1.18,0,0,0-1.52-.71L1588.74,810a1.19,1.19,0,0,0-.62,1.56l.68,1.7a1.18,1.18,0,0,0,1.52.71l12.82-5.11A1.19,1.19,0,0,0,1603.76,807.32Z" style="fill: #355389"/>
              <path d="M1606.67,814.61l-.68-1.7a1.18,1.18,0,0,0-1.52-.71l-12.83,5.11a1.18,1.18,0,0,0-.61,1.56l.68,1.7a1.18,1.18,0,0,0,1.52.71l12.82-5.11A1.19,1.19,0,0,0,1606.67,814.61Z" style="fill: #355389"/>
              <path d="M1609.57,821.9l-.68-1.7a1.18,1.18,0,0,0-1.52-.71l-12.82,5.11a1.19,1.19,0,0,0-.62,1.56l.68,1.7a1.19,1.19,0,0,0,1.53.71l12.82-5.11A1.18,1.18,0,0,0,1609.57,821.9Z" style="fill: #355389"/>
              <path d="M1612.48,829.19l-.68-1.7a1.18,1.18,0,0,0-1.52-.71l-12.82,5.11a1.19,1.19,0,0,0-.62,1.56l.68,1.7a1.18,1.18,0,0,0,1.52.71l12.82-5.11A1.19,1.19,0,0,0,1612.48,829.19Z" style="fill: #355389"/>
              <path d="M1615.38,836.48l-.68-1.71a1.2,1.2,0,0,0-1.52-.71l-12.82,5.12a1.19,1.19,0,0,0-.62,1.56l.68,1.7a1.19,1.19,0,0,0,1.53.71l12.82-5.11A1.18,1.18,0,0,0,1615.38,836.48Z" style="fill: #355389"/>
              <path d="M1618.29,843.77l-.68-1.71a1.2,1.2,0,0,0-1.52-.71l-12.82,5.11a1.2,1.2,0,0,0-.62,1.57l.68,1.7a1.18,1.18,0,0,0,1.52.71l12.82-5.11A1.19,1.19,0,0,0,1618.29,843.77Z" style="fill: #355389"/>
              <path d="M1621.19,851.06l-.68-1.71a1.2,1.2,0,0,0-1.52-.71l-12.82,5.11a1.2,1.2,0,0,0-.61,1.57l.67,1.7a1.19,1.19,0,0,0,1.53.71l12.82-5.11A1.18,1.18,0,0,0,1621.19,851.06Z" style="fill: #355389"/>
              <path d="M1624.1,858.35l-.68-1.71a1.2,1.2,0,0,0-1.52-.71L1609.08,861a1.19,1.19,0,0,0-.62,1.56l.68,1.71a1.18,1.18,0,0,0,1.52.71l12.82-5.11A1.19,1.19,0,0,0,1624.1,858.35Z" style="fill: #355389"/>
              <path d="M1627,865.64l-.68-1.71a1.2,1.2,0,0,0-1.52-.71L1612,868.33a1.19,1.19,0,0,0-.61,1.56l.68,1.71a1.19,1.19,0,0,0,1.52.71l12.82-5.11A1.19,1.19,0,0,0,1627,865.64Z" style="fill: #355389"/>
            </g>
          </g>
          <g>
            <path d="M1662.42,858.13l-53.61,76.35a2.38,2.38,0,0,0-.28.55l-5.46,16.78a2.1,2.1,0,0,0,3.26,2.33l14.35-10.82a2,2,0,0,0,.45-.47l53.75-76.54a2.11,2.11,0,0,0-.58-3l-9-5.76A2.11,2.11,0,0,0,1662.42,858.13Z" style="fill: #b75742"/>
            <path d="M1621.07,942.93l-.13.19-13.84,10.44-3.78-2.53,5.18-15.9C1612.56,937.35,1617.42,939.63,1621.07,942.93Z" style="fill: #f7cc7f"/>
          </g>
        </g>
        <g>
          <path d="M1119.28,31.67c7.71,6.16,21.14,26,38.27,39.89,10,8.14,17.73,6.07,30.52,7.61,60.69,7.34,44.24,19.74,51.52,21-2.07,4.76-21,45-24.5,53.07-3.26,7.49-8.9,10.84-17.06,9.71-12.55-1.73-25.21-3-37.56-5.7-31.67-6.87-49.3-22.71-72-41.94-6-5.11-7.51-11.47-4.39-18.69C1098.62,63,1117.7,34.76,1119.28,31.67Z" style="fill: #466eb6"/>
          <path d="M1246.17,148.48c-.28,13.22.73,15.87-4.94,13.87a79.18,79.18,0,0,1-10-4.45c-2.28-1.18-2.37-2.73-.52-4.59,2.7-2.7,5.46-5.33,8.16-8a11.69,11.69,0,0,1,5.13-14.06c1-.58.27.65,8.72-18.8-27.94-3.45-47.66-5.76-81.76-9.95A45.93,45.93,0,0,1,1146.73,92q-36.52-30.56-73-61.15c-3.3-2.76-3.71-6.82-1.09-9.94,2-2.38,4.66-2.5,7.51-2.14,7.78,1,84.08,10.45,91.82,11.36a50.16,50.16,0,0,1,27,11.61q35.88,30,71.86,60c3.29,2.75,4.18,5.27,3,8.32-1.27,3.35-4,5-8.23,4-3-.66-4.36.26-5.4,3.05-4.7,12.65-8,15.45-6.84,20.07C1254.23,140.76,1250,146.93,1246.17,148.48Z" style="fill: #86b1f2"/>
        </g>
        <g>
          <path d="M1372.73,1046.81l13.91,13.26a369.71,369.71,0,0,1,79.11,109.62l2.13,4.51s36.4,3.22,41.49-29.7h0a550,550,0,0,1-79.94-117.4l-6.58-15.39Z" style="fill: #466eb6"/>
          <path d="M1422.82,1011.66c1.79,2.57-8,12.47-21.81,22.11s-26.56,15.51-28.35,13,8-12.58,21.88-22.23S1421,1009.1,1422.82,1011.66Z" style="fill: #86b1f2"/>
          <path d="M1422.88,1011.76l-.05,0s-27.71,23.46-39.14,25.85l3.53,4.8a146.12,146.12,0,0,0,13.79-8.59C1414.68,1024.24,1424.38,1014.46,1422.88,1011.76Z" style="fill: #355389"/>
          <g>
            <path d="M1459.9,1079.87c0,4-1.5,21.49-30.54,28.78,1.92,2.6,3.79,5.23,5.64,7.88,18.38-5.44,26.64-14.88,30.36-22.06.59-1.13,1.3-2.66,1.77-3.84Q1463.46,1085.29,1459.9,1079.87Z" style="fill: #b75742"/>
            <polygon points="1431.97 1103.49 1389.23 1101.96 1399.36 1110.56 1393.31 1121.54 1433.76 1111.23 1431.97 1103.49" style="fill: #b75742"/>
            <polygon points="1435.87 1113.43 1420.68 1139.88 1431.36 1135.81 1435.47 1144.21 1442.61 1116.39 1435.87 1113.43" style="fill: #b75742"/>
            <path d="M1441.66,1120.6a14,14,0,1,1,12.6-15A13.84,13.84,0,0,1,1441.66,1120.6Z" style="fill: #f47458"/>
          </g>
        </g>
        <g>
          <path d="M1532.38,520.43l-90-80.31c-5.85-5.22-3.41-16,4.65-20.53l71.83-40.67c4.6-2.6,9.78-2.36,13.12.62l90,80.31c5.84,5.22,3.41,15.95-4.66,20.52L1545.49,521C1540.89,523.65,1535.71,523.41,1532.38,520.43Z" style="fill: #9bc1f9"/>
          <path d="M1528.12,456.54l-7.51-61.7a5.55,5.55,0,0,1,3.85-5.64,3.57,3.57,0,0,1,4.88,2.92l6.91,56.78,68.24,16.5c2.23.54,3.25,2.94,2.29,5.36s-3.55,3.95-5.78,3.41Z" style="fill: #fff"/>
        </g>
        <path d="M8.72,1292.27c-4.82,0-8.72,4.52-8.72,10.09s3.9,10.1,9.76,3.32H1782.38c2.27,0,4.11-3,4.13-6.66h0c0-3.72-1.84-6.75-4.13-6.75Z" style="fill: #184655"/>
        <polygon points="352.85 173.91 362.15 192.31 383.17 191.63 392.14 213 414.3 205.37 425.51 229.09 446.78 224.58 461.3 245.64 453.33 251.13 442.48 235.39 420.03 240.15 409.25 217.35 386.72 225.1 376.82 201.52 356.3 202.19 347.68 185.13 334.29 188.39 332 178.98 352.85 173.91" style="fill: #f7cc7f"/>
        <polygon points="1478.4 644.69 1497.51 652.45 1512.91 638.13 1533.7 648.35 1545.4 628.04 1569.43 638.56 1582.51 621.19 1607.29 627.53 1604.89 636.9 1586.36 632.16 1572.56 650.5 1549.46 640.38 1537.57 661.04 1514.62 649.76 1499.58 663.74 1481.87 656.55 1473.92 667.79 1466.01 662.21 1478.4 644.69" style="fill: #86b1f2"/>
      </g>
    </g>
  </g>
</svg>
