<?xml version="1.0" ?><svg id="Layer_1" style="enable-background:new 0 0 100 100;" version="1.1" viewBox="0 0 100 100" xml:space="preserve" xmlns="http://www.w3.org/2000/svg" xmlns:xlink="http://www.w3.org/1999/xlink"><g><path d="M81.1,76H18.9c-2.7,0-4.9-2.2-4.9-4.9V28.9c0-2.7,2.2-4.9,4.9-4.9h62.2c2.7,0,4.9,2.2,4.9,4.9v42.2   C86,73.8,83.8,76,81.1,76z M18.9,26c-1.6,0-2.9,1.3-2.9,2.9v42.2c0,1.6,1.3,2.9,2.9,2.9h62.2c1.6,0,2.9-1.3,2.9-2.9V28.9   c0-1.6-1.3-2.9-2.9-2.9H18.9z"/></g><g><path d="M35,50.7c-1.3,0-2.5-0.3-3.6-0.8c-3-1.4-4.9-4.4-4.9-7.7c0-4.7,3.8-8.5,8.5-8.5s8.5,3.8,8.5,8.5c0,3.3-1.9,6.3-4.9,7.7   C37.5,50.4,36.3,50.7,35,50.7z M35,35.7c-3.6,0-6.5,2.9-6.5,6.5c0,2.5,1.5,4.8,3.7,5.9c1.7,0.8,3.8,0.8,5.5,0   c2.3-1.1,3.7-3.4,3.7-5.9C41.5,38.6,38.6,35.7,35,35.7z"/></g><g><path d="M35.7,66.3c-0.1,0-0.2,0-0.3,0h-0.7c-3.3,0-6.2,0-8.4-0.8c-2.7-1-4-2.9-4-6.1c0-5.3,3.8-9.9,9.3-11.4l0.4-0.1l0.3,0.2   c1.7,0.8,3.8,0.8,5.5,0l0.3-0.2l0.4,0.1c5.5,1.4,9.3,6.1,9.3,11.4c0,3.1-1.3,5.1-4,6.1C41.6,66.2,38.9,66.3,35.7,66.3z M35,64.3   h0.3c3,0,5.8,0,7.7-0.7c1.9-0.7,2.7-1.9,2.7-4.2c0-4.3-3-8.1-7.4-9.3c-2.1,0.9-4.5,0.9-6.5,0c-4.4,1.3-7.4,5.1-7.4,9.3   c0,2.3,0.8,3.5,2.7,4.2c1.9,0.7,4.7,0.7,7.7,0.7H35z"/></g><g><path d="M76.7,52.6h-23c-0.6,0-1-0.4-1-1s0.4-1,1-1h23c0.6,0,1,0.4,1,1S77.2,52.6,76.7,52.6z"/></g><g><path d="M76.7,46.6h-23c-0.6,0-1-0.4-1-1s0.4-1,1-1h23c0.6,0,1,0.4,1,1S77.2,46.6,76.7,46.6z"/></g><g><path d="M76.7,40.6h-23c-0.6,0-1-0.4-1-1s0.4-1,1-1h23c0.6,0,1,0.4,1,1S77.2,40.6,76.7,40.6z"/></g></svg>