<svg xmlns="http://www.w3.org/2000/svg" xmlns:xlink="http://www.w3.org/1999/xlink" width="300" height="90" viewBox="0 0 300 90">
  <defs>
    <clipPath id="clip-path">
      <path id="Path_1" data-name="Path 1" d="M648.214-2.3A20.7,20.7,0,0,0,648,.263c0,8.815,7.6,15.991,16.9,15.991s16.9-7.175,16.9-15.991a19.139,19.139,0,0,0-.214-2.563h-33.38Z" transform="translate(-648 2.3)"/>
    </clipPath>
    <radialGradient id="radial-gradient" cx="-32.1" cy="-4.743" r="196.395" gradientTransform="translate(-14.54 -2.292) scale(0.547 0.517)" gradientUnits="userSpaceOnUse">
      <stop offset="0" stop-color="#fcee21"/>
      <stop offset="0.005" stop-color="#fcee21"/>
      <stop offset="0.099" stop-color="#fbe922"/>
      <stop offset="0.201" stop-color="#fadf23"/>
      <stop offset="0.308" stop-color="#f8d025"/>
      <stop offset="0.419" stop-color="#f6bb26"/>
      <stop offset="0.531" stop-color="#f49f26"/>
      <stop offset="0.643" stop-color="#f17e25"/>
      <stop offset="0.725" stop-color="#f06024"/>
      <stop offset="1" stop-color="#f06024"/>
    </radialGradient>
    <clipPath id="clip-path-2">
      <path id="Path_2" data-name="Path 2" d="M648.1,21V43.243c0,5.535,4.173,6.458,6.419,6.663H655.8V21Zm13.053,28.906h7.7V21h-7.7ZM674.1,21V49.906h1.284c2.14-.1,5.991-1.025,6.312-5.945V21Z" transform="translate(-648.1 -21)"/>
    </clipPath>
    <radialGradient id="radial-gradient-2" cx="-17.74" cy="-12.342" r="104.471" gradientTransform="translate(-2.524 -2.341) scale(0.858 0.81)" gradientUnits="userSpaceOnUse">
      <stop offset="0" stop-color="#fcee21"/>
      <stop offset="0.005" stop-color="#fcee21"/>
      <stop offset="0.879" stop-color="#f06024"/>
      <stop offset="1" stop-color="#f06024"/>
    </radialGradient>
    <clipPath id="clip-path-3">
      <rect id="Rectangle_4" data-name="Rectangle 4" width="226.923" height="3.998"/>
    </clipPath>
    <radialGradient id="radial-gradient-3" cx="35.356" cy="-44.447" r="18885.515" gradientTransform="translate(34.733 -43.707) scale(0.018 0.017)" gradientUnits="userSpaceOnUse">
      <stop offset="0" stop-color="#fcee21"/>
      <stop offset="0.005" stop-color="#fcee21"/>
      <stop offset="0.918" stop-color="#f06024"/>
      <stop offset="1" stop-color="#f06024"/>
    </radialGradient>
    <clipPath id="clip-NBE-logo">
      <rect width="300" height="90"/>
    </clipPath>
  </defs>
  <g id="NBE-logo" clip-path="url(#clip-NBE-logo)">
    <g id="NBE-logo_1552484362" transform="translate(-413.196 28.6)">
      <g id="Group_7" data-name="Group 7" transform="translate(664.409 -1.917)">
        <g id="Group_6" data-name="Group 6">
          <g id="Group_5" data-name="Group 5" clip-path="url(#clip-path)">
            <rect id="Rectangle_1" data-name="Rectangle 1" width="33.915" height="18.553" transform="translate(0 0)" fill="url(#radial-gradient)"/>
          </g>
        </g>
      </g>
      <g id="Group_10" data-name="Group 10" transform="translate(664.516 21.967)">
        <g id="Group_9" data-name="Group 9">
          <g id="Group_8" data-name="Group 8" clip-path="url(#clip-path-2)">
            <rect id="Rectangle_2" data-name="Rectangle 2" width="33.701" height="28.906" fill="url(#radial-gradient-2)"/>
          </g>
        </g>
      </g>
      <path id="Path_3" data-name="Path 3" d="M687.373-17.6h-42.8c-5.67,0-10.378,4.408-10.378,9.738v41.1c0,5.023,3.21,9.123,8.345,9.738V-9.6h46.861V42.877c5.135-.615,8.345-4.715,8.345-9.738v-41c0-5.33-4.707-9.738-10.378-9.738" transform="translate(15.445)" fill="#00643e"/>
      <g id="Group_13" data-name="Group 13" transform="translate(413.414 25.759)">
        <g id="Group_12" data-name="Group 12">
          <g id="Group_11" data-name="Group 11" clip-path="url(#clip-path-3)">
            <rect id="Rectangle_3" data-name="Rectangle 3" width="226.923" height="3.998" fill="url(#radial-gradient-3)"/>
          </g>
        </g>
      </g>
      <path id="Path_4" data-name="Path 4" d="M439.84,20.12a50.64,50.64,0,0,1,5.242-3.075,1.554,1.554,0,0,0,.856-1.743,19.645,19.645,0,0,0-6.526,3.588c-.642.718.321,1.23.428,1.23m6.74,26.651h2.461V33.548h-2.461ZM435.347,35.8h3.531V46.771h2.461V35.8h3.531V33.548h-9.522V35.8Zm-14.657,6.56-4.921-8.815h-2.354V46.771h2.247V38.16l4.814,8.61h2.461V33.548h-2.247v8.815Zm4.493-51.252a12.841,12.841,0,0,1,.428,1.948.831.831,0,0,1-.642.615c-1.5.308-1.391-2.665-1.391-2.665s-.214-.513-.642-.513-.856.615-.856.718a18.942,18.942,0,0,0,.856,2.973,1.855,1.855,0,0,0,2.675,1.23c.749-.205,1.07-1.23,1.284-1.333.321-.1,2.033.205,2.354-.615.642-2.153-.856-3.9-1.391-4.51-.428-.615-.963,0-.963,0,.856,1.128,1.926,3.485.963,3.9-.963.308-1.5-1.845-1.6-2.358s-.214-1.025-.963-.82c-.749.1-.321.923-.107,1.435m156.2-1.435s-2.675,4.408-11.234,8.1a.718.718,0,0,0-.321.41c-.107.41.642.718,2.568,0A24.847,24.847,0,0,0,582.991-9.4l.963.718s1.284-.513,1.07-3.383l-.749-.82s.856-2.358-.535-3.485c-1.391-1.23-3.317.513-3.852,1.128-.321.41-1.6,2.563,1.5,4.92m.321-4.408c.856-.615,2.033.923.321,1.64-.321.205-1.07-.923-.321-1.64M599.36-.894a1.091,1.091,0,0,0-.749.1c-.321.308-1.819,2.255-1.819,2.255s-.107.41.107.513c.321.1,3.1,1.23,3.1,1.23l2.033-2.46a.782.782,0,0,0-.321-.923c-.535-.1-2.354-.718-2.354-.718M579.674,6.9c-2.14.513-5.456-.308-5.563,0-.107.41,2.568,2.973,6.419,2.05,3.638-.82,4.173-2.46,4.6-3.485.856-1.845.428-4.408-1.5-4.2s-2.568-.615-2.568-1.23.428-1.23,1.712-1.333a1.908,1.908,0,0,0,1.5-1.128V-4.276s.107-.923-1.07-.718-2.675,1.538-3.638,3.383-1.07,4.408-.428,5.33c.749,1.025,3.21.615,3.317,1.538.214.513-.642,1.128-2.782,1.64m56.49,9.635c0,.615-.107,1.128.321,1.128,1.819-.205,2.782-6.355,2.889-12.505a65.984,65.984,0,0,0-1.5-13.223c-.214-1.025-.321-1.743.321-2.153.642-.513,1.391,0,1.712-.205s.107-.615.107-.615-3.638-5.945-3.852-6.253a.523.523,0,0,0-.642-.1L633.7-14.424A114.088,114.088,0,0,1,636.378-.279a93.1,93.1,0,0,1-.214,16.811M597.007-3.251s7.6-5.638,22.147-10.865l1.6-2.768A100.674,100.674,0,0,0,597.221-6.429a3.869,3.869,0,0,0-1.391,2.563,1.031,1.031,0,0,0,1.177.615m-46.861-7.688a4.811,4.811,0,0,0-3.1,4c-.107,1.743,2.568,2.665,2.568,2.665a3.238,3.238,0,0,0-.428,2.358c.214.82.428.513.428.513a5.874,5.874,0,0,1,3.745-3.485c.856-.308.963-.615.963-.615s.749-2.563.321-2.563a20.488,20.488,0,0,0-2.568.923c-.535.308-1.926.615-2.247.1-.749-1.128.856-1.128,1.177-1.128a3.63,3.63,0,0,0,2.14-.82c.535-.308.428-.718.107-1.128a3.677,3.677,0,0,0-3.1-.82M488.627-1.1a24.846,24.846,0,0,0,10.592-7.585l.963.718s1.284-.513,1.07-3.383l-.749-.82s.856-2.358-.535-3.485c-1.391-1.23-3.317.513-3.852,1.128s-1.712,2.87,1.391,5.125c0,0-2.675,4.408-11.234,8.1a.718.718,0,0,0-.321.41c0,.205.749.513,2.675-.205m9.308-12.813c.856-.718,2.033.923.321,1.64-.321.1-1.177-1.025-.321-1.64m-18.4,31.981c0,.615-.107,1.128.321,1.128,1.819-.205,2.782-6.355,2.889-12.505a65.987,65.987,0,0,0-1.5-13.223c-.214-1.025-.321-1.743.321-2.153.642-.513,1.391,0,1.712-.205s0-.615,0-.615-3.638-5.945-3.959-6.253a.458.458,0,0,0-.642,0l-1.819,2.973a114.084,114.084,0,0,1,2.675,14.146c.963,6.663.107,16.093,0,16.708m-63.444-24.4a18.559,18.559,0,0,0,7.81-5.638l.749.513s.963-.41.749-2.563l-.535-.615s.642-1.743-.321-2.563c-1.07-.923-2.461.308-2.782.82-.321.41-1.284,2.153,1.07,3.9,0,0-2.033,3.28-8.238,6.048a.381.381,0,0,0-.214.308c-.214.1.321.308,1.712-.205m6.954-9.738c.642-.513,1.712.718.321,1.333-.321.205-1.07-.82-.321-1.333m121.539,5.638a77.606,77.606,0,0,1,6.954-4.1,2.241,2.241,0,0,0,1.177-2.255,25.011,25.011,0,0,0-8.559,4.818c-1.07.82.214,1.538.428,1.538m-41.726,9.02c-.963.308-1.5-1.845-1.6-2.358s-.214-1.025-.963-.82c-.856.205-.321,1.025-.214,1.538A12.842,12.842,0,0,1,500.5-1.1a.831.831,0,0,1-.642.615c-1.5.308-1.391-2.665-1.391-2.665s-.214-.513-.642-.513-.856.615-.856.718a18.942,18.942,0,0,0,.856,2.973c.642,1.845,2.033,1.435,2.782,1.23s1.07-1.23,1.284-1.333c.321-.1,2.033.205,2.354-.615.642-2.153-.856-3.9-1.391-4.51-.428-.615-.963,0-.963,0,.856,1.025,1.926,3.485.963,3.793M428.928,33.548,424.22,46.771h2.568l.963-2.973h4.814l1.07,2.973h2.675L431.5,33.548h-2.568Zm-.321,8,1.6-4.92,1.712,4.92Zm141.332,5.228H572.4V41.133h5.029V38.878H572.4V35.8h5.777V33.548h-8.238V46.771Zm17.332-5.843h6.1V38.673h-6.1V35.7H593.8V33.445H584.81V46.668h9.2V44.516h-6.74V40.928ZM555.281,7.512,560.1,3s.428,12.3,0,15.171,1.926-1.23,2.14-4.613.107-12.813.107-12.813,12.2-11.275,13.695-16.913c.321-1.435-.642-1.025-1.07-.615-.321.41-9.736,12.1-12.946,14.248l-.856-5.945s.321-.718.856-.41.642.615.963.41a.583.583,0,0,0,.214-.615l-3.1-7.073s-.321-.513-.642-.205c-.321.41-1.391,2.665-1.391,2.665s2.247,8.1,1.819,13.223l-6.419,5.843L539.233-7.556s-.535-.82.321-.923.963-.513.321-1.025c-.642-.41-7.168-4.408-7.168-4.408l.321,4,18.4,17.528s-3.317,2.358-3.21,5.945,1.391,3.9,3.1,4a5.337,5.337,0,0,0,5.563-5.228,6.1,6.1,0,0,0-1.6-4.818m-2.461,6.048c-1.712.205-2.354-.205-2.354-.718a4.716,4.716,0,0,1,2.889-3.485s1.6,1.23,1.6,1.845a2.606,2.606,0,0,1-2.14,2.358M456.745,33.343a6.706,6.706,0,0,0-2.568.513,4.214,4.214,0,0,0-1.6,1.23,5.317,5.317,0,0,0-1.07,1.845,10.27,10.27,0,0,0-.535,3.383,7.055,7.055,0,0,0,1.6,4.92,5.886,5.886,0,0,0,8.559,0,7.332,7.332,0,0,0,1.6-5.023,7.156,7.156,0,0,0-1.6-5.023,5.88,5.88,0,0,0-4.387-1.845m2.354,10.25a2.749,2.749,0,0,1-2.354,1.128,3.254,3.254,0,0,1-2.461-1.128,5.355,5.355,0,0,1-.963-3.383,4.977,4.977,0,0,1,.963-3.383,3.094,3.094,0,0,1,2.461-1.128,3.254,3.254,0,0,1,2.461,1.128,5,5,0,0,1,.856,3.383,5.355,5.355,0,0,1-.963,3.383m142.616-1.64H604.5v1.64a8.965,8.965,0,0,1-1.284.82,4.358,4.358,0,0,1-1.5.308,3.094,3.094,0,0,1-2.461-1.128,5.6,5.6,0,0,1-.963-3.588,4.86,4.86,0,0,1,.963-3.28,3.315,3.315,0,0,1,2.568-1.128,2.314,2.314,0,0,1,1.712.615,3.833,3.833,0,0,1,.963,1.538l2.461-.513a4.6,4.6,0,0,0-1.6-2.87,5.318,5.318,0,0,0-3.531-1.025,5.983,5.983,0,0,0-2.889.615,6.631,6.631,0,0,0-2.354,2.46,7.889,7.889,0,0,0-.749,3.69,7.587,7.587,0,0,0,.749,3.485,4.538,4.538,0,0,0,2.14,2.46,5.944,5.944,0,0,0,3.317.923,7.322,7.322,0,0,0,2.889-.615,7.484,7.484,0,0,0,2.247-1.435V39.7h-5.242l-.214,2.255Zm29.1-8.405V35.8h3.531V46.771h2.461V35.8h3.531V33.548Zm-4.493-50.739a.458.458,0,0,0-.642,0l-1.819,2.973a93.011,93.011,0,0,1,2.247,11.378l.321,2.563v.205c.107.718.214,1.538.321,2.255l.642,5.023s.856,3.9-2.461,4.408c-4.173.615-3.638-3.28-3.424-3.793.107-.513-.107-.82-.535-.513-4.386,3.383-7.7,5.433-11.555,5.433-5.991.1-5.242-3.588-5.349-4.51-.107-1.128-.856-.923-1.07-.615-.321.308-2.568,5.023-5.884,4.715-4.066-.41-3.317-5.125-3.317-6.458,0-8.713-1.926-22.038-1.926-22.448s-.535-.41-.535-.41l-1.712,2.973a143.9,143.9,0,0,1,2.033,21.321,14.826,14.826,0,0,1-12.09,6.355c-4.173,0-6.633-1.128-7.917-2.255a3.942,3.942,0,0,1-1.6-3.075c-.107-2.05,1.819-4.2,1.819-4.2a1.2,1.2,0,0,0-.642-1.025c-.642-.308-2.14.718-3.1,5.945-.963,5.125,4.815,8,8.238,8.1,10.271.41,14.657-5.433,15.085-5.74.321-.308,1.391-1.23,1.5.41a4.609,4.609,0,0,0,4.708,4.408,4.664,4.664,0,0,0,4.387-2.665c.321-.41.749-.513,1.07.1a7.636,7.636,0,0,0,7.7,2.563c6.633-1.435,8.131-4.408,8.88-4.408,1.5,0,.535,3.178,4.494,3.178,4.708,0,5.563-5.638,5.67-6.355,0-.308-.321-4.305-.749-8.3a71.892,71.892,0,0,0-.749-8.3c-.214-1.025-.321-1.743.321-2.153.642-.513,1.391,0,1.712-.205s0-.615,0-.615-3.745-5.843-4.066-6.253M550.574,33.548h-3.317l-4.815,5.843V33.548h-2.461V46.771h2.461v-4l1.926-2.255,3.317,6.253h3.1l-4.814-8.1Zm70.185-16.4a17.521,17.521,0,0,0-2.354-.82,1.091,1.091,0,0,0-.749.1c-.321.308-1.819,2.255-1.819,2.255s-.107.41.107.615c.321.1,3.1,1.333,3.1,1.333l2.033-2.46c0-.1.214-.718-.321-1.025m-7.489,21.628-2.782-5.228H607.6l4.386,7.688v5.535h2.461V41.235l4.386-7.688h-2.782Zm13.909-5.023a14.562,14.562,0,0,0-2.889-.205h-3.852V46.771H622.9V41.748h1.6a16.02,16.02,0,0,0,2.568-.205,3.681,3.681,0,0,0,1.284-.615,3.56,3.56,0,0,0,1.07-1.333,3.922,3.922,0,0,0,.428-2.05,3.881,3.881,0,0,0-.749-2.563,4.386,4.386,0,0,0-1.926-1.23m-.321,4.92a1.424,1.424,0,0,1-.749.615,6.96,6.96,0,0,1-1.926.205H622.9V35.7h1.177a6.461,6.461,0,0,1,1.712.1,1.562,1.562,0,0,1,.963.615,2.139,2.139,0,0,1,.428,1.23,1.681,1.681,0,0,1-.321,1.025m-64.728-5.33a6.707,6.707,0,0,0-2.568.513,5.6,5.6,0,0,0-1.6,1.23,5.317,5.317,0,0,0-1.07,1.845,8.08,8.08,0,0,0-.535,3.383,7.055,7.055,0,0,0,1.6,4.92,5.339,5.339,0,0,0,4.28,1.845,5.49,5.49,0,0,0,4.28-1.845,7.332,7.332,0,0,0,1.6-5.023,7.156,7.156,0,0,0-1.6-5.023,5.717,5.717,0,0,0-4.387-1.845m2.461,10.25a2.749,2.749,0,0,1-2.354,1.128,2.884,2.884,0,0,1-2.354-1.128,5.356,5.356,0,0,1-.963-3.383,4.977,4.977,0,0,1,.963-3.383,3.094,3.094,0,0,1,2.461-1.128,3.254,3.254,0,0,1,2.461,1.128,5,5,0,0,1,.856,3.383,8.539,8.539,0,0,1-1.07,3.383M478.891,11.1c.428-4.2-2.461-5.125-3.852-5.33s-1.819.513-3.1.615a.655.655,0,0,1-.642-.308,101.423,101.423,0,0,0-.856-13.941c-.214-1.025-.321-1.743.321-2.153.642-.513,1.391,0,1.712-.205s0-.615,0-.615-3.638-5.945-3.852-6.253a.458.458,0,0,0-.642,0l-1.819,2.973a96.29,96.29,0,0,1,2.033,9.738c.535,4.305.963,8.815.749,10.865-.321,3.178-3.317,2.973-3.424,2.563s.535-1.743.642-3.383-2.14-4.51-6.312-4.715-7.6,3.485-8.345,4.305c-.963,1.128-2.033,2.665-2.675,3.588-.642-.41-2.461-2.153-4.494-1.845-2.247.308-3.317.923-6.205,3.28-2.461,2.153-6.205,7.483-9.736,7.38-3.531-.205-2.461-5.74-2.461-5.74a20.6,20.6,0,0,0,7.81-2.973c2.889-1.948,5.884-4.305,6.1-6.765.107-1.845-1.284-3.075-3.424-3.383-2.461-.41-3.638.308-4.814-.513-.535-.41.107-1.64.856-2.46,2.568-2.665,4.173-2.87,4.707-2.768.749.1-.107,1.025,1.177,1.128,1.284.205,1.391-.41,1.712-2.153s-.214-2.87-1.819-2.665a12.832,12.832,0,0,0-6.312,2.973,10.482,10.482,0,0,0-3.1,6.15c-.214,2.05.963,3.075,3,3.588,2.247.513,4.066-.205,4.494.718S432.137,7.819,425.4,8.742c-3.1.41-6.526-.205-8.88-3.075-1.926-2.255-.642-5.433-.214-6.355.856-1.743,2.354-5.433.535-4.2-1.819,1.333-5.349,8.1-2.675,11.993,3.531,5.125,11.127,4.715,11.127,4.715s-1.6,3.178-1.5,4.613c.107,1.743.749,4.305,3.959,4.408,3.424.1,5.028-1.743,8.131-4.613,3-2.665,5.884-5.023,6.847-5.433,1.819-.718,4.173,1.025,4.173,1.025a1.428,1.428,0,0,0-.214.923,7.659,7.659,0,0,0,.428,1.23l1.284-1.128c3.959,2.563,8.024,1.333,10.485.923a48.732,48.732,0,0,0,8.773-2.46,6.455,6.455,0,0,1,2.033-.41c.856-.205,1.284,1.538,2.033,2.46a4.064,4.064,0,0,0,2.782,1.333,4.215,4.215,0,0,0,4.387-3.588m-21.826-.41c-1.926.513-5.135,1.333-5.884-.513a8.571,8.571,0,0,1,1.6-2.563c1.819-2.05,4.173-3.9,6.312-3.485,2.14.308,4.28,2.255,4.28,2.973-.107,1.128-2.568,2.563-6.312,3.588M474.4,11.2c-.856-.615-.856-1.435-.535-1.743.428-.308,1.391.1,1.819.615.321.615-.428,1.743-1.284,1.128m5.67,22.346-4.707,13.223h2.568l.963-2.973h4.814l1.07,2.973h2.675l-4.814-13.223h-2.568Zm-.321,8,1.6-4.92,1.6,4.92ZM491.3,33.65h-2.461V46.771h8.452V44.516h-6.1V33.65ZM471.83,42.363l-4.921-8.815h-2.354V46.771H466.8V38.16l4.921,8.61h2.461V33.548H471.83v8.815Zm-.749-25.421a1.486,1.486,0,0,0,.856-1.64,19.645,19.645,0,0,0-6.526,3.588c-.749.615.214,1.23.321,1.128a58.471,58.471,0,0,1,5.349-3.075m64.086,25.421-4.921-8.815h-2.354V46.771h2.247V38.16l4.814,8.61h2.461V33.548h-2.247v8.815Zm8.024-29.931c-.107-4.408-5.349-4.818-5.349-4.818.535-.41,1.6-2.255,1.926-5.33.321-3.485-1.712-6.355-2.247-6.458s-2.461,5.33-2.889,7.585c-.428,2.358-1.6,2.665-1.6,2.665-1.07.923-3.21,1.538-9.308,2.358-6.205.82-9.843-1.948-11.02-4.613s-3.21-19.681-3.317-20.706c-.214-1.025-.642-.615-.963-.205a34.817,34.817,0,0,0-.428,8c.214,3.178,1.284,7.073,1.6,9.738A6.259,6.259,0,0,1,505.1,7.1c-1.391.205-1.6.82-1.6.82s-.642,2.87-.428,3.075,4.707.1,5.242.205,1.926.205,1.5,1.025c-.214.41-3.1,3.69-9.629,4.92a15.06,15.06,0,0,1-6.419,0,7.69,7.69,0,0,1-4.066-2.563c-3-4.51.749-9.225.428-9.635-.963-1.333-3.852,3.9-3.852,6.56a9.608,9.608,0,0,0,4.708,7.585,16.1,16.1,0,0,0,12.839-.1c6.954-2.87,8.88-7.483,8.559-8.918a2.69,2.69,0,0,0-2.354-1.845c-.535-.1-.535-.513-.321-.923s.642-.513,1.391,0c1.07.82,3.317,4.408,10.057,4.818a31.355,31.355,0,0,0,9.2-1.333c.535-.205,2.889-1.435,3.1-.1.428,1.948.963,5.33,5.67,5.843.749.205,4.173.615,4.066-4.1M537.2,1.566c.428-.1,1.177.923.642,2.05s-.963,1.845-1.819,1.23c-.856-.513.321-2.973,1.177-3.28m.642,11.275c-.642-.308-1.712-1.23-1.177-1.845.321-.41,3.317,0,3.745,1.538.107.718-2.033.615-2.568.308M511.309,39.8a3.352,3.352,0,0,0,1.284-1.128,3.256,3.256,0,0,0,.428-1.743,2.394,2.394,0,0,0-.428-1.538,2.532,2.532,0,0,0-.963-1.128,2.811,2.811,0,0,0-1.284-.513,11.568,11.568,0,0,0-2.14-.1h-4.815V46.873h4.066a17.563,17.563,0,0,0,2.889-.1,3.713,3.713,0,0,0,1.6-.615,4.053,4.053,0,0,0,1.5-3.075,3.531,3.531,0,0,0-.535-1.948,2.3,2.3,0,0,0-1.6-1.333m-5.456-4.1h3.531c.428.1.749.205.856.513a1.487,1.487,0,0,1,.321,1.025,1.681,1.681,0,0,1-.321,1.025,1.456,1.456,0,0,1-.963.513h-3.424V35.7Zm4.814,8.2a1.48,1.48,0,0,1-.856.513,6,6,0,0,1-1.712.1h-2.247V40.928h1.926a8.331,8.331,0,0,1,2.14.205,1.424,1.424,0,0,1,.749.615,1.627,1.627,0,0,1,.214,1.025.853.853,0,0,1-.214,1.128m8.452-10.353-4.707,13.223h2.568l.963-2.973h4.814l1.07,2.973H526.5l-4.814-13.223h-2.568Zm-.428,8,1.6-4.92,1.712,4.92ZM516.658,17.25a2.094,2.094,0,0,0,1.177-2.255,27.318,27.318,0,0,0-8.559,4.818c-.963.82.321,1.538.535,1.538a69.2,69.2,0,0,1,6.847-4.1" transform="translate(0 0.002)" fill="#00643e"/>
    </g>
  </g>
</svg>
